<?xml version="1.0" encoding="UTF-8" standalone="no"?>
<!DOCTYPE svg PUBLIC "-//W3C//DTD SVG 1.1//EN"
 "http://www.w3.org/Graphics/SVG/1.1/DTD/svg11.dtd">
<!-- Generated by graphviz version 2.42.3 (20191010.1750)
 -->
<!-- Title: G Pages: 1 -->
<svg width="3709pt" height="680pt"
 viewBox="0.00 0.00 3708.57 680.38" xmlns="http://www.w3.org/2000/svg" xmlns:xlink="http://www.w3.org/1999/xlink">
<g id="graph0" class="graph" transform="scale(1 1) rotate(0) translate(21.6 658.78)">
<title>G</title>
<polygon fill="#111111" stroke="transparent" points="-21.6,21.6 -21.6,-658.78 3686.97,-658.78 3686.97,21.6 -21.6,21.6"/>
<!-- App.test.tsx -->
<g id="node1" class="node">
<title>App.test.tsx</title>
<path fill="none" stroke="#c6c5fe" d="M113.84,-209.15C113.84,-209.15 40.68,-209.15 40.68,-209.15 36.65,-209.15 32.61,-205.12 32.61,-201.08 32.61,-201.08 32.61,-193.02 32.61,-193.02 32.61,-188.98 36.65,-184.95 40.68,-184.95 40.68,-184.95 113.84,-184.95 113.84,-184.95 117.87,-184.95 121.9,-188.98 121.9,-193.02 121.9,-193.02 121.9,-201.08 121.9,-201.08 121.9,-205.12 117.87,-209.15 113.84,-209.15"/>
<text text-anchor="middle" x="77.26" y="-193.9" font-family="Arial" font-size="14.00" fill="#c6c5fe">App.test.tsx</text>
</g>
<!-- App.tsx -->
<g id="node2" class="node">
<title>App.tsx</title>
<path fill="none" stroke="#c6c5fe" d="M271.44,-209.15C271.44,-209.15 225.19,-209.15 225.19,-209.15 221.16,-209.15 217.13,-205.12 217.13,-201.08 217.13,-201.08 217.13,-193.02 217.13,-193.02 217.13,-188.98 221.16,-184.95 225.19,-184.95 225.19,-184.95 271.44,-184.95 271.44,-184.95 275.47,-184.95 279.51,-188.98 279.51,-193.02 279.51,-193.02 279.51,-201.08 279.51,-201.08 279.51,-205.12 275.47,-209.15 271.44,-209.15"/>
<text text-anchor="middle" x="248.32" y="-193.9" font-family="Arial" font-size="14.00" fill="#c6c5fe">App.tsx</text>
</g>
<!-- App.test.tsx&#45;&gt;App.tsx -->
<g id="edge1" class="edge">
<title>App.test.tsx&#45;&gt;App.tsx</title>
<path fill="none" stroke="#757575" d="M122.24,-197.05C148.38,-197.05 181.3,-197.05 206.8,-197.05"/>
<polygon fill="#757575" stroke="#757575" points="206.88,-200.55 216.88,-197.05 206.88,-193.55 206.88,-200.55"/>
</g>
<!-- routes/Board/index.tsx -->
<g id="node3" class="node">
<title>routes/Board/index.tsx</title>
<path fill="none" stroke="#c6c5fe" d="M489.49,-349.15C489.49,-349.15 350.03,-349.15 350.03,-349.15 346,-349.15 341.97,-345.12 341.97,-341.08 341.97,-341.08 341.97,-333.02 341.97,-333.02 341.97,-328.98 346,-324.95 350.03,-324.95 350.03,-324.95 489.49,-324.95 489.49,-324.95 493.53,-324.95 497.56,-328.98 497.56,-333.02 497.56,-333.02 497.56,-341.08 497.56,-341.08 497.56,-345.12 493.53,-349.15 489.49,-349.15"/>
<text text-anchor="middle" x="419.76" y="-333.9" font-family="Arial" font-size="14.00" fill="#c6c5fe">routes/Board/index.tsx</text>
</g>
<!-- App.tsx&#45;&gt;routes/Board/index.tsx -->
<g id="edge2" class="edge">
<title>App.tsx&#45;&gt;routes/Board/index.tsx</title>
<path fill="none" stroke="#757575" d="M264.06,-209.23C293.73,-233.74 360.81,-289.17 396.1,-318.32"/>
<polygon fill="#757575" stroke="#757575" points="394,-321.13 403.94,-324.8 398.46,-315.73 394,-321.13"/>
</g>
<!-- routes/Dashboard/index.tsx -->
<g id="node4" class="node">
<title>routes/Dashboard/index.tsx</title>
<path fill="none" stroke="#c6c5fe" d="M1547.48,-87.15C1547.48,-87.15 1376.75,-87.15 1376.75,-87.15 1372.72,-87.15 1368.69,-83.12 1368.69,-79.08 1368.69,-79.08 1368.69,-71.02 1368.69,-71.02 1368.69,-66.98 1372.72,-62.95 1376.75,-62.95 1376.75,-62.95 1547.48,-62.95 1547.48,-62.95 1551.51,-62.95 1555.54,-66.98 1555.54,-71.02 1555.54,-71.02 1555.54,-79.08 1555.54,-79.08 1555.54,-83.12 1551.51,-87.15 1547.48,-87.15"/>
<text text-anchor="middle" x="1462.12" y="-71.9" font-family="Arial" font-size="14.00" fill="#c6c5fe">routes/Dashboard/index.tsx</text>
</g>
<!-- App.tsx&#45;&gt;routes/Dashboard/index.tsx -->
<g id="edge3" class="edge">
<title>App.tsx&#45;&gt;routes/Dashboard/index.tsx</title>
<path fill="none" stroke="#757575" d="M279.57,-194C429.9,-178.87 1099.51,-111.45 1358.43,-85.39"/>
<polygon fill="#757575" stroke="#757575" points="1358.99,-88.85 1368.59,-84.36 1358.29,-81.88 1358.99,-88.85"/>
</g>
<!-- routes/testSpace/index.tsx -->
<g id="node5" class="node">
<title>routes/testSpace/index.tsx</title>
<path fill="none" stroke="#c6c5fe" d="M1544.25,-209.15C1544.25,-209.15 1379.98,-209.15 1379.98,-209.15 1375.95,-209.15 1371.92,-205.12 1371.92,-201.08 1371.92,-201.08 1371.92,-193.02 1371.92,-193.02 1371.92,-188.98 1375.95,-184.95 1379.98,-184.95 1379.98,-184.95 1544.25,-184.95 1544.25,-184.95 1548.28,-184.95 1552.31,-188.98 1552.31,-193.02 1552.31,-193.02 1552.31,-201.08 1552.31,-201.08 1552.31,-205.12 1548.28,-209.15 1544.25,-209.15"/>
<text text-anchor="middle" x="1462.12" y="-193.9" font-family="Arial" font-size="14.00" fill="#c6c5fe">routes/testSpace/index.tsx</text>
</g>
<!-- App.tsx&#45;&gt;routes/testSpace/index.tsx -->
<g id="edge4" class="edge">
<title>App.tsx&#45;&gt;routes/testSpace/index.tsx</title>
<path fill="none" stroke="#757575" d="M279.57,-197.05C430.53,-197.05 1105.15,-197.05 1361.67,-197.05"/>
<polygon fill="#757575" stroke="#757575" points="1361.73,-200.55 1371.73,-197.05 1361.73,-193.55 1361.73,-200.55"/>
</g>
<!-- routes/Board/components/Canvas/index.tsx -->
<g id="node24" class="node">
<title>routes/Board/components/Canvas/index.tsx</title>
<path fill="none" stroke="#cfffac" d="M812.07,-391.15C812.07,-391.15 541.57,-391.15 541.57,-391.15 537.54,-391.15 533.51,-387.12 533.51,-383.08 533.51,-383.08 533.51,-375.02 533.51,-375.02 533.51,-370.98 537.54,-366.95 541.57,-366.95 541.57,-366.95 812.07,-366.95 812.07,-366.95 816.1,-366.95 820.13,-370.98 820.13,-375.02 820.13,-375.02 820.13,-383.08 820.13,-383.08 820.13,-387.12 816.1,-391.15 812.07,-391.15"/>
<text text-anchor="middle" x="676.82" y="-375.9" font-family="Arial" font-size="14.00" fill="#cfffac">routes/Board/components/Canvas/index.tsx</text>
</g>
<!-- routes/Board/index.tsx&#45;&gt;routes/Board/components/Canvas/index.tsx -->
<g id="edge34" class="edge">
<title>routes/Board/index.tsx&#45;&gt;routes/Board/components/Canvas/index.tsx</title>
<path fill="none" stroke="#757575" d="M483.25,-349.13C499.56,-352.17 517.13,-355.33 533.41,-358.05 548.48,-360.56 564.46,-363.07 580.08,-365.44"/>
<polygon fill="#757575" stroke="#757575" points="579.86,-368.95 590.27,-366.97 580.9,-362.02 579.86,-368.95"/>
</g>
<!-- routes/Board/components/Header/index.tsx -->
<g id="node28" class="node">
<title>routes/Board/components/Header/index.tsx</title>
<path fill="none" stroke="#c6c5fe" d="M811.51,-349.15C811.51,-349.15 542.12,-349.15 542.12,-349.15 538.09,-349.15 534.06,-345.12 534.06,-341.08 534.06,-341.08 534.06,-333.02 534.06,-333.02 534.06,-328.98 538.09,-324.95 542.12,-324.95 542.12,-324.95 811.51,-324.95 811.51,-324.95 815.55,-324.95 819.58,-328.98 819.58,-333.02 819.58,-333.02 819.58,-341.08 819.58,-341.08 819.58,-345.12 815.55,-349.15 811.51,-349.15"/>
<text text-anchor="middle" x="676.82" y="-333.9" font-family="Arial" font-size="14.00" fill="#c6c5fe">routes/Board/components/Header/index.tsx</text>
</g>
<!-- routes/Board/index.tsx&#45;&gt;routes/Board/components/Header/index.tsx -->
<g id="edge35" class="edge">
<title>routes/Board/index.tsx&#45;&gt;routes/Board/components/Header/index.tsx</title>
<path fill="none" stroke="#757575" d="M497.63,-337.05C506.05,-337.05 514.82,-337.05 523.76,-337.05"/>
<polygon fill="#757575" stroke="#757575" points="523.91,-340.55 533.91,-337.05 523.91,-333.55 523.91,-340.55"/>
</g>
<!-- routes/Dashboard/Dashboard.mobile/index.tsx -->
<g id="node33" class="node">
<title>routes/Dashboard/Dashboard.mobile/index.tsx</title>
<path fill="none" stroke="#c6c5fe" d="M1986.11,-66.15C1986.11,-66.15 1698.37,-66.15 1698.37,-66.15 1694.34,-66.15 1690.31,-62.12 1690.31,-58.08 1690.31,-58.08 1690.31,-50.02 1690.31,-50.02 1690.31,-45.98 1694.34,-41.95 1698.37,-41.95 1698.37,-41.95 1986.11,-41.95 1986.11,-41.95 1990.15,-41.95 1994.18,-45.98 1994.18,-50.02 1994.18,-50.02 1994.18,-58.08 1994.18,-58.08 1994.18,-62.12 1990.15,-66.15 1986.11,-66.15"/>
<text text-anchor="middle" x="1842.24" y="-50.9" font-family="Arial" font-size="14.00" fill="#c6c5fe">routes/Dashboard/Dashboard.mobile/index.tsx</text>
</g>
<!-- routes/Dashboard/index.tsx&#45;&gt;routes/Dashboard/Dashboard.mobile/index.tsx -->
<g id="edge50" class="edge">
<title>routes/Dashboard/index.tsx&#45;&gt;routes/Dashboard/Dashboard.mobile/index.tsx</title>
<path fill="none" stroke="#757575" d="M1555.62,-69.91C1593.06,-67.83 1637.42,-65.37 1679.87,-63.01"/>
<polygon fill="#757575" stroke="#757575" points="1680.25,-66.5 1690.04,-62.45 1679.86,-59.51 1680.25,-66.5"/>
</g>
<!-- routes/Dashboard/Dashboard.web/index.tsx -->
<g id="node39" class="node">
<title>routes/Dashboard/Dashboard.web/index.tsx</title>
<path fill="none" stroke="#c6c5fe" d="M1978.56,-108.15C1978.56,-108.15 1705.93,-108.15 1705.93,-108.15 1701.9,-108.15 1697.87,-104.12 1697.87,-100.08 1697.87,-100.08 1697.87,-92.02 1697.87,-92.02 1697.87,-87.98 1701.9,-83.95 1705.93,-83.95 1705.93,-83.95 1978.56,-83.95 1978.56,-83.95 1982.59,-83.95 1986.62,-87.98 1986.62,-92.02 1986.62,-92.02 1986.62,-100.08 1986.62,-100.08 1986.62,-104.12 1982.59,-108.15 1978.56,-108.15"/>
<text text-anchor="middle" x="1842.24" y="-92.9" font-family="Arial" font-size="14.00" fill="#c6c5fe">routes/Dashboard/Dashboard.web/index.tsx</text>
</g>
<!-- routes/Dashboard/index.tsx&#45;&gt;routes/Dashboard/Dashboard.web/index.tsx -->
<g id="edge51" class="edge">
<title>routes/Dashboard/index.tsx&#45;&gt;routes/Dashboard/Dashboard.web/index.tsx</title>
<path fill="none" stroke="#757575" d="M1555.62,-80.19C1595.35,-82.39 1642.87,-85.03 1687.64,-87.52"/>
<polygon fill="#757575" stroke="#757575" points="1687.57,-91.02 1697.75,-88.08 1687.96,-84.03 1687.57,-91.02"/>
</g>
<!-- routes/Dashboard/Store.ts -->
<g id="node40" class="node">
<title>routes/Dashboard/Store.ts</title>
<path fill="none" stroke="#cfffac" d="M1924.1,-24.15C1924.1,-24.15 1760.39,-24.15 1760.39,-24.15 1756.36,-24.15 1752.32,-20.12 1752.32,-16.08 1752.32,-16.08 1752.32,-8.02 1752.32,-8.02 1752.32,-3.98 1756.36,0.05 1760.39,0.05 1760.39,0.05 1924.1,0.05 1924.1,0.05 1928.13,0.05 1932.16,-3.98 1932.16,-8.02 1932.16,-8.02 1932.16,-16.08 1932.16,-16.08 1932.16,-20.12 1928.13,-24.15 1924.1,-24.15"/>
<text text-anchor="middle" x="1842.24" y="-8.9" font-family="Arial" font-size="14.00" fill="#cfffac">routes/Dashboard/Store.ts</text>
</g>
<!-- routes/Dashboard/index.tsx&#45;&gt;routes/Dashboard/Store.ts -->
<g id="edge52" class="edge">
<title>routes/Dashboard/index.tsx&#45;&gt;routes/Dashboard/Store.ts</title>
<path fill="none" stroke="#757575" d="M1510.32,-62.98C1548.14,-53.68 1602.69,-41.09 1650.98,-33.05 1680.45,-28.14 1712.69,-24.09 1742.11,-20.9"/>
<polygon fill="#757575" stroke="#757575" points="1742.82,-24.35 1752.39,-19.81 1742.08,-17.39 1742.82,-24.35"/>
</g>
<!-- components/Button/index.tsx -->
<g id="node8" class="node">
<title>components/Button/index.tsx</title>
<path fill="none" stroke="#cfffac" d="M2401.06,-379.15C2401.06,-379.15 2221.65,-379.15 2221.65,-379.15 2217.62,-379.15 2213.58,-375.12 2213.58,-371.08 2213.58,-371.08 2213.58,-363.02 2213.58,-363.02 2213.58,-358.98 2217.62,-354.95 2221.65,-354.95 2221.65,-354.95 2401.06,-354.95 2401.06,-354.95 2405.09,-354.95 2409.13,-358.98 2409.13,-363.02 2409.13,-363.02 2409.13,-371.08 2409.13,-371.08 2409.13,-375.12 2405.09,-379.15 2401.06,-379.15"/>
<text text-anchor="middle" x="2311.36" y="-363.9" font-family="Arial" font-size="14.00" fill="#cfffac">components/Button/index.tsx</text>
</g>
<!-- routes/testSpace/index.tsx&#45;&gt;components/Button/index.tsx -->
<g id="edge55" class="edge">
<title>routes/testSpace/index.tsx&#45;&gt;components/Button/index.tsx</title>
<path fill="none" stroke="#757575" d="M1510.71,-209.18C1548.52,-218.46 1602.86,-230.99 1650.98,-239.05 1819.71,-267.31 1866,-247.24 2033.5,-282.05 2118.54,-299.72 2214.88,-332.25 2268.54,-351.54"/>
<polygon fill="#757575" stroke="#757575" points="2267.46,-354.87 2278.05,-354.98 2269.84,-348.28 2267.46,-354.87"/>
</g>
<!-- routes/testSpace/components/AutoIncrementItem/index.tsx -->
<g id="node41" class="node">
<title>routes/testSpace/components/AutoIncrementItem/index.tsx</title>
<path fill="none" stroke="#cfffac" d="M2025.2,-188.15C2025.2,-188.15 1659.29,-188.15 1659.29,-188.15 1655.25,-188.15 1651.22,-184.12 1651.22,-180.08 1651.22,-180.08 1651.22,-172.02 1651.22,-172.02 1651.22,-167.98 1655.25,-163.95 1659.29,-163.95 1659.29,-163.95 2025.2,-163.95 2025.2,-163.95 2029.23,-163.95 2033.27,-167.98 2033.27,-172.02 2033.27,-172.02 2033.27,-180.08 2033.27,-180.08 2033.27,-184.12 2029.23,-188.15 2025.2,-188.15"/>
<text text-anchor="middle" x="1842.24" y="-172.9" font-family="Arial" font-size="14.00" fill="#cfffac">routes/testSpace/components/AutoIncrementItem/index.tsx</text>
</g>
<!-- routes/testSpace/index.tsx&#45;&gt;routes/testSpace/components/AutoIncrementItem/index.tsx -->
<g id="edge56" class="edge">
<title>routes/testSpace/index.tsx&#45;&gt;routes/testSpace/components/AutoIncrementItem/index.tsx</title>
<path fill="none" stroke="#757575" d="M1552.25,-192.1C1579.14,-190.61 1609.82,-188.9 1640.91,-187.18"/>
<polygon fill="#757575" stroke="#757575" points="1641.22,-190.66 1651.01,-186.61 1640.83,-183.67 1641.22,-190.66"/>
</g>
<!-- routes/testSpace/components/DeepDataTest/index.tsx -->
<g id="node43" class="node">
<title>routes/testSpace/components/DeepDataTest/index.tsx</title>
<path fill="none" stroke="#c6c5fe" d="M2010.64,-230.15C2010.64,-230.15 1673.85,-230.15 1673.85,-230.15 1669.81,-230.15 1665.78,-226.12 1665.78,-222.08 1665.78,-222.08 1665.78,-214.02 1665.78,-214.02 1665.78,-209.98 1669.81,-205.95 1673.85,-205.95 1673.85,-205.95 2010.64,-205.95 2010.64,-205.95 2014.67,-205.95 2018.71,-209.98 2018.71,-214.02 2018.71,-214.02 2018.71,-222.08 2018.71,-222.08 2018.71,-226.12 2014.67,-230.15 2010.64,-230.15"/>
<text text-anchor="middle" x="1842.24" y="-214.9" font-family="Arial" font-size="14.00" fill="#c6c5fe">routes/testSpace/components/DeepDataTest/index.tsx</text>
</g>
<!-- routes/testSpace/index.tsx&#45;&gt;routes/testSpace/components/DeepDataTest/index.tsx -->
<g id="edge57" class="edge">
<title>routes/testSpace/index.tsx&#45;&gt;routes/testSpace/components/DeepDataTest/index.tsx</title>
<path fill="none" stroke="#757575" d="M1552.25,-202C1583.28,-203.72 1619.36,-205.73 1655.28,-207.72"/>
<polygon fill="#757575" stroke="#757575" points="1655.23,-211.22 1665.41,-208.28 1655.62,-204.23 1655.23,-211.22"/>
</g>
<!-- routes/testSpace/perfStore.ts -->
<g id="node44" class="node">
<title>routes/testSpace/perfStore.ts</title>
<path fill="none" stroke="#c6c5fe" d="M2402.11,-229.15C2402.11,-229.15 2220.6,-229.15 2220.6,-229.15 2216.57,-229.15 2212.54,-225.12 2212.54,-221.08 2212.54,-221.08 2212.54,-213.02 2212.54,-213.02 2212.54,-208.98 2216.57,-204.95 2220.6,-204.95 2220.6,-204.95 2402.11,-204.95 2402.11,-204.95 2406.14,-204.95 2410.17,-208.98 2410.17,-213.02 2410.17,-213.02 2410.17,-221.08 2410.17,-221.08 2410.17,-225.12 2406.14,-229.15 2402.11,-229.15"/>
<text text-anchor="middle" x="2311.36" y="-213.9" font-family="Arial" font-size="14.00" fill="#c6c5fe">routes/testSpace/perfStore.ts</text>
</g>
<!-- routes/testSpace/index.tsx&#45;&gt;routes/testSpace/perfStore.ts -->
<g id="edge58" class="edge">
<title>routes/testSpace/index.tsx&#45;&gt;routes/testSpace/perfStore.ts</title>
<path fill="none" stroke="#757575" d="M1504.83,-184.95C1542.61,-174.66 1599.99,-160.68 1650.98,-155.05 1819.97,-136.39 1878.63,-84.93 2033.5,-155.05 2055.6,-165.05 2047.87,-185.1 2069.5,-196.05 2109.98,-216.54 2159.21,-223.47 2202.59,-224.64"/>
<polygon fill="#757575" stroke="#757575" points="2202.55,-228.14 2212.61,-224.81 2202.67,-221.14 2202.55,-228.14"/>
</g>
<!-- components/Actions/index.tsx -->
<g id="node6" class="node">
<title>components/Actions/index.tsx</title>
<path fill="none" stroke="#c6c5fe" d="M2912.41,-43.15C2912.41,-43.15 2727.13,-43.15 2727.13,-43.15 2723.1,-43.15 2719.07,-39.12 2719.07,-35.08 2719.07,-35.08 2719.07,-27.02 2719.07,-27.02 2719.07,-22.98 2723.1,-18.95 2727.13,-18.95 2727.13,-18.95 2912.41,-18.95 2912.41,-18.95 2916.45,-18.95 2920.48,-22.98 2920.48,-27.02 2920.48,-27.02 2920.48,-35.08 2920.48,-35.08 2920.48,-39.12 2916.45,-43.15 2912.41,-43.15"/>
<text text-anchor="middle" x="2819.77" y="-27.9" font-family="Arial" font-size="14.00" fill="#c6c5fe">components/Actions/index.tsx</text>
</g>
<!-- types/CommonTypes.ts -->
<g id="node7" class="node">
<title>types/CommonTypes.ts</title>
<path fill="none" stroke="#cfffac" d="M3265.58,-26.15C3265.58,-26.15 3119.16,-26.15 3119.16,-26.15 3115.13,-26.15 3111.1,-22.12 3111.1,-18.08 3111.1,-18.08 3111.1,-10.02 3111.1,-10.02 3111.1,-5.98 3115.13,-1.95 3119.16,-1.95 3119.16,-1.95 3265.58,-1.95 3265.58,-1.95 3269.62,-1.95 3273.65,-5.98 3273.65,-10.02 3273.65,-10.02 3273.65,-18.08 3273.65,-18.08 3273.65,-22.12 3269.62,-26.15 3265.58,-26.15"/>
<text text-anchor="middle" x="3192.37" y="-10.9" font-family="Arial" font-size="14.00" fill="#cfffac">types/CommonTypes.ts</text>
</g>
<!-- components/Actions/index.tsx&#45;&gt;types/CommonTypes.ts -->
<g id="edge5" class="edge">
<title>components/Actions/index.tsx&#45;&gt;types/CommonTypes.ts</title>
<path fill="none" stroke="#757575" d="M2920.58,-26.47C2976.78,-23.89 3046.43,-20.7 3101.02,-18.19"/>
<polygon fill="#757575" stroke="#757575" points="3101.2,-21.69 3111.03,-17.73 3100.88,-14.7 3101.2,-21.69"/>
</g>
<!-- components/Input/index.tsx -->
<g id="node9" class="node">
<title>components/Input/index.tsx</title>
<path fill="none" stroke="#cfffac" d="M2396.72,-589.15C2396.72,-589.15 2225.99,-589.15 2225.99,-589.15 2221.95,-589.15 2217.92,-585.12 2217.92,-581.08 2217.92,-581.08 2217.92,-573.02 2217.92,-573.02 2217.92,-568.98 2221.95,-564.95 2225.99,-564.95 2225.99,-564.95 2396.72,-564.95 2396.72,-564.95 2400.76,-564.95 2404.79,-568.98 2404.79,-573.02 2404.79,-573.02 2404.79,-581.08 2404.79,-581.08 2404.79,-585.12 2400.76,-589.15 2396.72,-589.15"/>
<text text-anchor="middle" x="2311.36" y="-573.9" font-family="Arial" font-size="14.00" fill="#cfffac">components/Input/index.tsx</text>
</g>
<!-- components/Modal/index.tsx -->
<g id="node10" class="node">
<title>components/Modal/index.tsx</title>
<path fill="none" stroke="#cfffac" d="M2400.22,-505.15C2400.22,-505.15 2222.49,-505.15 2222.49,-505.15 2218.46,-505.15 2214.43,-501.12 2214.43,-497.08 2214.43,-497.08 2214.43,-489.02 2214.43,-489.02 2214.43,-484.98 2218.46,-480.95 2222.49,-480.95 2222.49,-480.95 2400.22,-480.95 2400.22,-480.95 2404.25,-480.95 2408.28,-484.98 2408.28,-489.02 2408.28,-489.02 2408.28,-497.08 2408.28,-497.08 2408.28,-501.12 2404.25,-505.15 2400.22,-505.15"/>
<text text-anchor="middle" x="2311.36" y="-489.9" font-family="Arial" font-size="14.00" fill="#cfffac">components/Modal/index.tsx</text>
</g>
<!-- components/modals/BoardTitleModal/BoardTitleStore.js -->
<g id="node11" class="node">
<title>components/modals/BoardTitleModal/BoardTitleStore.js</title>
<path fill="none" stroke="#cfffac" d="M2014.91,-348.15C2014.91,-348.15 1669.57,-348.15 1669.57,-348.15 1665.54,-348.15 1661.51,-344.12 1661.51,-340.08 1661.51,-340.08 1661.51,-332.02 1661.51,-332.02 1661.51,-327.98 1665.54,-323.95 1669.57,-323.95 1669.57,-323.95 2014.91,-323.95 2014.91,-323.95 2018.95,-323.95 2022.98,-327.98 2022.98,-332.02 2022.98,-332.02 2022.98,-340.08 2022.98,-340.08 2022.98,-344.12 2018.95,-348.15 2014.91,-348.15"/>
<text text-anchor="middle" x="1842.24" y="-332.9" font-family="Arial" font-size="14.00" fill="#cfffac">components/modals/BoardTitleModal/BoardTitleStore.js</text>
</g>
<!-- components/modals/BoardTitleModal/index.tsx -->
<g id="node12" class="node">
<title>components/modals/BoardTitleModal/index.tsx</title>
<path fill="none" stroke="#c6c5fe" d="M1606.78,-449.15C1606.78,-449.15 1317.45,-449.15 1317.45,-449.15 1313.41,-449.15 1309.38,-445.12 1309.38,-441.08 1309.38,-441.08 1309.38,-433.02 1309.38,-433.02 1309.38,-428.98 1313.41,-424.95 1317.45,-424.95 1317.45,-424.95 1606.78,-424.95 1606.78,-424.95 1610.82,-424.95 1614.85,-428.98 1614.85,-433.02 1614.85,-433.02 1614.85,-441.08 1614.85,-441.08 1614.85,-445.12 1610.82,-449.15 1606.78,-449.15"/>
<text text-anchor="middle" x="1462.12" y="-433.9" font-family="Arial" font-size="14.00" fill="#c6c5fe">components/modals/BoardTitleModal/index.tsx</text>
</g>
<!-- components/modals/BoardTitleModal/index.tsx&#45;&gt;components/Button/index.tsx -->
<g id="edge6" class="edge">
<title>components/modals/BoardTitleModal/index.tsx&#45;&gt;components/Button/index.tsx</title>
<path fill="none" stroke="#757575" d="M1506.75,-424.98C1544.58,-415.08 1600.95,-401.65 1650.98,-395.05 1844.58,-369.5 2072.66,-365.56 2203.5,-365.78"/>
<polygon fill="#757575" stroke="#757575" points="2203.51,-369.28 2213.52,-365.81 2203.53,-362.28 2203.51,-369.28"/>
</g>
<!-- components/modals/BoardTitleModal/index.tsx&#45;&gt;components/Input/index.tsx -->
<g id="edge7" class="edge">
<title>components/modals/BoardTitleModal/index.tsx&#45;&gt;components/Input/index.tsx</title>
<path fill="none" stroke="#757575" d="M1476.35,-449.48C1505.28,-475.7 1577.46,-536.17 1650.98,-559.05 1751.69,-590.38 2048.87,-585.94 2207.63,-580.99"/>
<polygon fill="#757575" stroke="#757575" points="2208,-584.48 2217.88,-580.66 2207.77,-577.48 2208,-584.48"/>
</g>
<!-- components/modals/BoardTitleModal/index.tsx&#45;&gt;components/Modal/index.tsx -->
<g id="edge8" class="edge">
<title>components/modals/BoardTitleModal/index.tsx&#45;&gt;components/Modal/index.tsx</title>
<path fill="none" stroke="#757575" d="M1505.97,-449.19C1543.78,-459.28 1600.55,-472.94 1650.98,-479.05 1845.13,-502.58 2073.72,-500.94 2204.38,-497.25"/>
<polygon fill="#757575" stroke="#757575" points="2204.49,-500.75 2214.39,-496.95 2204.29,-493.75 2204.49,-500.75"/>
</g>
<!-- components/modals/BoardTitleModal/index.tsx&#45;&gt;components/modals/BoardTitleModal/BoardTitleStore.js -->
<g id="edge9" class="edge">
<title>components/modals/BoardTitleModal/index.tsx&#45;&gt;components/modals/BoardTitleModal/BoardTitleStore.js</title>
<path fill="none" stroke="#757575" d="M1487.68,-424.98C1522.94,-408.19 1590.37,-378.03 1650.98,-362.05 1669.8,-357.09 1689.94,-353.03 1709.8,-349.74"/>
<polygon fill="#757575" stroke="#757575" points="1710.52,-353.17 1719.84,-348.13 1709.42,-346.25 1710.52,-353.17"/>
</g>
<!-- components/modals/DeleteModal/index.tsx -->
<g id="node13" class="node">
<title>components/modals/DeleteModal/index.tsx</title>
<path fill="none" stroke="#c6c5fe" d="M1975.59,-428.15C1975.59,-428.15 1708.89,-428.15 1708.89,-428.15 1704.86,-428.15 1700.83,-424.12 1700.83,-420.08 1700.83,-420.08 1700.83,-412.02 1700.83,-412.02 1700.83,-407.98 1704.86,-403.95 1708.89,-403.95 1708.89,-403.95 1975.59,-403.95 1975.59,-403.95 1979.63,-403.95 1983.66,-407.98 1983.66,-412.02 1983.66,-412.02 1983.66,-420.08 1983.66,-420.08 1983.66,-424.12 1979.63,-428.15 1975.59,-428.15"/>
<text text-anchor="middle" x="1842.24" y="-412.9" font-family="Arial" font-size="14.00" fill="#c6c5fe">components/modals/DeleteModal/index.tsx</text>
</g>
<!-- components/modals/BoardTitleModal/index.tsx&#45;&gt;components/modals/DeleteModal/index.tsx -->
<g id="edge10" class="edge">
<title>components/modals/BoardTitleModal/index.tsx&#45;&gt;components/modals/DeleteModal/index.tsx</title>
<path fill="none" stroke="#757575" d="M1615.01,-428.61C1639.91,-427.23 1665.72,-425.8 1690.59,-424.42"/>
<polygon fill="#757575" stroke="#757575" points="1691.02,-427.9 1700.82,-423.85 1690.64,-420.91 1691.02,-427.9"/>
</g>
<!-- components/modals/DuplicateModal/index.tsx -->
<g id="node14" class="node">
<title>components/modals/DuplicateModal/index.tsx</title>
<path fill="none" stroke="#c6c5fe" d="M1984.49,-470.15C1984.49,-470.15 1700,-470.15 1700,-470.15 1695.96,-470.15 1691.93,-466.12 1691.93,-462.08 1691.93,-462.08 1691.93,-454.02 1691.93,-454.02 1691.93,-449.98 1695.96,-445.95 1700,-445.95 1700,-445.95 1984.49,-445.95 1984.49,-445.95 1988.52,-445.95 1992.56,-449.98 1992.56,-454.02 1992.56,-454.02 1992.56,-462.08 1992.56,-462.08 1992.56,-466.12 1988.52,-470.15 1984.49,-470.15"/>
<text text-anchor="middle" x="1842.24" y="-454.9" font-family="Arial" font-size="14.00" fill="#c6c5fe">components/modals/DuplicateModal/index.tsx</text>
</g>
<!-- components/modals/BoardTitleModal/index.tsx&#45;&gt;components/modals/DuplicateModal/index.tsx -->
<g id="edge11" class="edge">
<title>components/modals/BoardTitleModal/index.tsx&#45;&gt;components/modals/DuplicateModal/index.tsx</title>
<path fill="none" stroke="#757575" d="M1615.01,-445.48C1636.91,-446.7 1659.51,-447.96 1681.56,-449.18"/>
<polygon fill="#757575" stroke="#757575" points="1681.46,-452.68 1691.64,-449.74 1681.85,-445.69 1681.46,-452.68"/>
</g>
<!-- components/modals/DeleteModal/index.tsx&#45;&gt;components/Button/index.tsx -->
<g id="edge14" class="edge">
<title>components/modals/DeleteModal/index.tsx&#45;&gt;components/Button/index.tsx</title>
<path fill="none" stroke="#757575" d="M1934.53,-403.99C1975.73,-398.74 2025.02,-392.74 2069.5,-388.05 2113.18,-383.44 2161.38,-379.1 2203.12,-375.56"/>
<polygon fill="#757575" stroke="#757575" points="2203.63,-379.03 2213.3,-374.71 2203.04,-372.06 2203.63,-379.03"/>
</g>
<!-- components/modals/DeleteModal/index.tsx&#45;&gt;components/Modal/index.tsx -->
<g id="edge15" class="edge">
<title>components/modals/DeleteModal/index.tsx&#45;&gt;components/Modal/index.tsx</title>
<path fill="none" stroke="#757575" d="M1983.87,-420.87C2001.07,-424.54 2018.03,-429.75 2033.5,-437.05 2053.69,-446.57 2049.21,-462.76 2069.5,-472.05 2111.11,-491.09 2160.95,-497.72 2204.48,-499.06"/>
<polygon fill="#757575" stroke="#757575" points="2204.45,-502.56 2214.52,-499.28 2204.6,-495.56 2204.45,-502.56"/>
</g>
<!-- components/modals/DeleteModal/Store.ts -->
<g id="node15" class="node">
<title>components/modals/DeleteModal/Store.ts</title>
<path fill="none" stroke="#c6c5fe" d="M2441.2,-421.15C2441.2,-421.15 2181.51,-421.15 2181.51,-421.15 2177.48,-421.15 2173.45,-417.12 2173.45,-413.08 2173.45,-413.08 2173.45,-405.02 2173.45,-405.02 2173.45,-400.98 2177.48,-396.95 2181.51,-396.95 2181.51,-396.95 2441.2,-396.95 2441.2,-396.95 2445.23,-396.95 2449.26,-400.98 2449.26,-405.02 2449.26,-405.02 2449.26,-413.08 2449.26,-413.08 2449.26,-417.12 2445.23,-421.15 2441.2,-421.15"/>
<text text-anchor="middle" x="2311.36" y="-405.9" font-family="Arial" font-size="14.00" fill="#c6c5fe">components/modals/DeleteModal/Store.ts</text>
</g>
<!-- components/modals/DeleteModal/index.tsx&#45;&gt;components/modals/DeleteModal/Store.ts -->
<g id="edge16" class="edge">
<title>components/modals/DeleteModal/index.tsx&#45;&gt;components/modals/DeleteModal/Store.ts</title>
<path fill="none" stroke="#757575" d="M1983.71,-413.94C2040.36,-413.1 2105.74,-412.12 2163.06,-411.26"/>
<polygon fill="#757575" stroke="#757575" points="2163.35,-414.75 2173.3,-411.1 2163.25,-407.75 2163.35,-414.75"/>
</g>
<!-- components/modals/DuplicateModal/index.tsx&#45;&gt;components/Button/index.tsx -->
<g id="edge17" class="edge">
<title>components/modals/DuplicateModal/index.tsx&#45;&gt;components/Button/index.tsx</title>
<path fill="none" stroke="#757575" d="M1993.01,-453.6C2007.23,-449.65 2020.99,-444.28 2033.5,-437.05 2056.91,-423.54 2045.95,-401.29 2069.5,-388.05 2109.56,-365.54 2159.4,-358.44 2203.33,-357.69"/>
<polygon fill="#757575" stroke="#757575" points="2203.51,-361.18 2213.49,-357.62 2203.46,-354.18 2203.51,-361.18"/>
</g>
<!-- components/modals/DuplicateModal/index.tsx&#45;&gt;components/Input/index.tsx -->
<g id="edge18" class="edge">
<title>components/modals/DuplicateModal/index.tsx&#45;&gt;components/Input/index.tsx</title>
<path fill="none" stroke="#757575" d="M1911.65,-470.14C1949.62,-479.02 1996.51,-493.7 2033.5,-517.05 2053.45,-529.64 2048.33,-545.66 2069.5,-556.05 2111.8,-576.81 2163.32,-583.4 2207.83,-584.25"/>
<polygon fill="#757575" stroke="#757575" points="2208.07,-587.76 2218.1,-584.35 2208.13,-580.76 2208.07,-587.76"/>
</g>
<!-- components/modals/DuplicateModal/index.tsx&#45;&gt;components/Modal/index.tsx -->
<g id="edge19" class="edge">
<title>components/modals/DuplicateModal/index.tsx&#45;&gt;components/Modal/index.tsx</title>
<path fill="none" stroke="#757575" d="M1992.65,-469.24C2061.55,-474.41 2141.73,-480.41 2204.3,-485.1"/>
<polygon fill="#757575" stroke="#757575" points="2204.35,-488.62 2214.59,-485.87 2204.87,-481.64 2204.35,-488.62"/>
</g>
<!-- components/modals/DuplicateModal/Store.js -->
<g id="node18" class="node">
<title>components/modals/DuplicateModal/Store.js</title>
<path fill="none" stroke="#cfffac" d="M2449.82,-463.15C2449.82,-463.15 2172.89,-463.15 2172.89,-463.15 2168.86,-463.15 2164.83,-459.12 2164.83,-455.08 2164.83,-455.08 2164.83,-447.02 2164.83,-447.02 2164.83,-442.98 2168.86,-438.95 2172.89,-438.95 2172.89,-438.95 2449.82,-438.95 2449.82,-438.95 2453.85,-438.95 2457.88,-442.98 2457.88,-447.02 2457.88,-447.02 2457.88,-455.08 2457.88,-455.08 2457.88,-459.12 2453.85,-463.15 2449.82,-463.15"/>
<text text-anchor="middle" x="2311.36" y="-447.9" font-family="Arial" font-size="14.00" fill="#cfffac">components/modals/DuplicateModal/Store.js</text>
</g>
<!-- components/modals/DuplicateModal/index.tsx&#45;&gt;components/modals/DuplicateModal/Store.js -->
<g id="edge20" class="edge">
<title>components/modals/DuplicateModal/index.tsx&#45;&gt;components/modals/DuplicateModal/Store.js</title>
<path fill="none" stroke="#757575" d="M1992.65,-455.81C2044.3,-455.04 2102.3,-454.17 2154.47,-453.39"/>
<polygon fill="#757575" stroke="#757575" points="2154.53,-456.88 2164.48,-453.24 2154.42,-449.89 2154.53,-456.88"/>
</g>
<!-- helpers/navigateHelper.ts -->
<g id="node16" class="node">
<title>helpers/navigateHelper.ts</title>
<path fill="none" stroke="#cfffac" d="M2898.69,-342.15C2898.69,-342.15 2740.85,-342.15 2740.85,-342.15 2736.82,-342.15 2732.79,-338.12 2732.79,-334.08 2732.79,-334.08 2732.79,-326.02 2732.79,-326.02 2732.79,-321.98 2736.82,-317.95 2740.85,-317.95 2740.85,-317.95 2898.69,-317.95 2898.69,-317.95 2902.73,-317.95 2906.76,-321.98 2906.76,-326.02 2906.76,-326.02 2906.76,-334.08 2906.76,-334.08 2906.76,-338.12 2902.73,-342.15 2898.69,-342.15"/>
<text text-anchor="middle" x="2819.77" y="-326.9" font-family="Arial" font-size="14.00" fill="#cfffac">helpers/navigateHelper.ts</text>
</g>
<!-- components/modals/DeleteModal/Store.ts&#45;&gt;helpers/navigateHelper.ts -->
<g id="edge12" class="edge">
<title>components/modals/DeleteModal/Store.ts&#45;&gt;helpers/navigateHelper.ts</title>
<path fill="none" stroke="#757575" d="M2449.29,-413.82C2484.47,-410.62 2521.35,-403.16 2553.21,-388.05 2573.93,-378.21 2568.5,-360.93 2589.21,-351.05 2630.17,-331.51 2679.89,-325.16 2722.57,-324.15"/>
<polygon fill="#757575" stroke="#757575" points="2722.75,-327.64 2732.7,-324 2722.65,-320.65 2722.75,-327.64"/>
</g>
<!-- stores/boardStore.ts -->
<g id="node17" class="node">
<title>stores/boardStore.ts</title>
<path fill="none" stroke="#c6c5fe" d="M2882.77,-426.15C2882.77,-426.15 2756.78,-426.15 2756.78,-426.15 2752.75,-426.15 2748.71,-422.12 2748.71,-418.08 2748.71,-418.08 2748.71,-410.02 2748.71,-410.02 2748.71,-405.98 2752.75,-401.95 2756.78,-401.95 2756.78,-401.95 2882.77,-401.95 2882.77,-401.95 2886.8,-401.95 2890.84,-405.98 2890.84,-410.02 2890.84,-410.02 2890.84,-418.08 2890.84,-418.08 2890.84,-422.12 2886.8,-426.15 2882.77,-426.15"/>
<text text-anchor="middle" x="2819.77" y="-410.9" font-family="Arial" font-size="14.00" fill="#c6c5fe">stores/boardStore.ts</text>
</g>
<!-- components/modals/DeleteModal/Store.ts&#45;&gt;stores/boardStore.ts -->
<g id="edge13" class="edge">
<title>components/modals/DeleteModal/Store.ts&#45;&gt;stores/boardStore.ts</title>
<path fill="none" stroke="#757575" d="M2449.4,-410.4C2541.91,-411.32 2660.84,-412.49 2738.39,-413.26"/>
<polygon fill="#757575" stroke="#757575" points="2738.54,-416.76 2748.58,-413.36 2738.61,-409.76 2738.54,-416.76"/>
</g>
<!-- services/accessRulesService.ts -->
<g id="node36" class="node">
<title>services/accessRulesService.ts</title>
<path fill="none" stroke="#c6c5fe" d="M3290.37,-363.15C3290.37,-363.15 3094.38,-363.15 3094.38,-363.15 3090.34,-363.15 3086.31,-359.12 3086.31,-355.08 3086.31,-355.08 3086.31,-347.02 3086.31,-347.02 3086.31,-342.98 3090.34,-338.95 3094.38,-338.95 3094.38,-338.95 3290.37,-338.95 3290.37,-338.95 3294.4,-338.95 3298.43,-342.98 3298.43,-347.02 3298.43,-347.02 3298.43,-355.08 3298.43,-355.08 3298.43,-359.12 3294.4,-363.15 3290.37,-363.15"/>
<text text-anchor="middle" x="3192.37" y="-347.9" font-family="Arial" font-size="14.00" fill="#c6c5fe">services/accessRulesService.ts</text>
</g>
<!-- stores/boardStore.ts&#45;&gt;services/accessRulesService.ts -->
<g id="edge66" class="edge">
<title>stores/boardStore.ts&#45;&gt;services/accessRulesService.ts</title>
<path fill="none" stroke="#757575" d="M2890.87,-411.37C2936.61,-408.71 2997.42,-403.44 3050.34,-393.05 3066.76,-389.83 3070.32,-386.86 3086.34,-382.05 3103.92,-376.77 3123.18,-371.06 3140.35,-366"/>
<polygon fill="#757575" stroke="#757575" points="3141.59,-369.29 3150.19,-363.1 3139.61,-362.57 3141.59,-369.29"/>
</g>
<!-- services/boardService.ts -->
<g id="node45" class="node">
<title>services/boardService.ts</title>
<path fill="none" stroke="#c6c5fe" d="M3268.31,-415.15C3268.31,-415.15 3116.43,-415.15 3116.43,-415.15 3112.4,-415.15 3108.37,-411.12 3108.37,-407.08 3108.37,-407.08 3108.37,-399.02 3108.37,-399.02 3108.37,-394.98 3112.4,-390.95 3116.43,-390.95 3116.43,-390.95 3268.31,-390.95 3268.31,-390.95 3272.34,-390.95 3276.38,-394.98 3276.38,-399.02 3276.38,-399.02 3276.38,-407.08 3276.38,-407.08 3276.38,-411.12 3272.34,-415.15 3268.31,-415.15"/>
<text text-anchor="middle" x="3192.37" y="-399.9" font-family="Arial" font-size="14.00" fill="#c6c5fe">services/boardService.ts</text>
</g>
<!-- stores/boardStore.ts&#45;&gt;services/boardService.ts -->
<g id="edge67" class="edge">
<title>stores/boardStore.ts&#45;&gt;services/boardService.ts</title>
<path fill="none" stroke="#757575" d="M2890.92,-411.97C2949.58,-410.23 3033.75,-407.73 3098.09,-405.82"/>
<polygon fill="#757575" stroke="#757575" points="3098.34,-409.31 3108.24,-405.52 3098.14,-402.32 3098.34,-409.31"/>
</g>
<!-- components/modals/ShareModal/Store.ts -->
<g id="node19" class="node">
<title>components/modals/ShareModal/Store.ts</title>
<path fill="none" stroke="#cfffac" d="M2439.59,-547.15C2439.59,-547.15 2183.12,-547.15 2183.12,-547.15 2179.09,-547.15 2175.06,-543.12 2175.06,-539.08 2175.06,-539.08 2175.06,-531.02 2175.06,-531.02 2175.06,-526.98 2179.09,-522.95 2183.12,-522.95 2183.12,-522.95 2439.59,-522.95 2439.59,-522.95 2443.62,-522.95 2447.65,-526.98 2447.65,-531.02 2447.65,-531.02 2447.65,-539.08 2447.65,-539.08 2447.65,-543.12 2443.62,-547.15 2439.59,-547.15"/>
<text text-anchor="middle" x="2311.36" y="-531.9" font-family="Arial" font-size="14.00" fill="#cfffac">components/modals/ShareModal/Store.ts</text>
</g>
<!-- components/modals/ShareModal/index.tsx -->
<g id="node20" class="node">
<title>components/modals/ShareModal/index.tsx</title>
<path fill="none" stroke="#c6c5fe" d="M1973.98,-550.15C1973.98,-550.15 1710.5,-550.15 1710.5,-550.15 1706.47,-550.15 1702.44,-546.12 1702.44,-542.08 1702.44,-542.08 1702.44,-534.02 1702.44,-534.02 1702.44,-529.98 1706.47,-525.95 1710.5,-525.95 1710.5,-525.95 1973.98,-525.95 1973.98,-525.95 1978.02,-525.95 1982.05,-529.98 1982.05,-534.02 1982.05,-534.02 1982.05,-542.08 1982.05,-542.08 1982.05,-546.12 1978.02,-550.15 1973.98,-550.15"/>
<text text-anchor="middle" x="1842.24" y="-534.9" font-family="Arial" font-size="14.00" fill="#c6c5fe">components/modals/ShareModal/index.tsx</text>
</g>
<!-- components/modals/ShareModal/index.tsx&#45;&gt;components/Button/index.tsx -->
<g id="edge21" class="edge">
<title>components/modals/ShareModal/index.tsx&#45;&gt;components/Button/index.tsx</title>
<path fill="none" stroke="#757575" d="M1937.89,-525.96C1971.48,-517.54 2007.38,-503.26 2033.5,-479.05 2065.41,-449.49 2034.63,-414.04 2069.5,-388.05 2115.33,-353.89 2180.55,-350.13 2231.57,-354.09"/>
<polygon fill="#757575" stroke="#757575" points="2231.3,-357.58 2241.57,-354.98 2231.92,-350.61 2231.3,-357.58"/>
</g>
<!-- components/modals/ShareModal/index.tsx&#45;&gt;components/Input/index.tsx -->
<g id="edge22" class="edge">
<title>components/modals/ShareModal/index.tsx&#45;&gt;components/Input/index.tsx</title>
<path fill="none" stroke="#757575" d="M1982.13,-549.65C2054.52,-555.69 2141.52,-562.95 2207.75,-568.48"/>
<polygon fill="#757575" stroke="#757575" points="2207.53,-571.98 2217.78,-569.32 2208.11,-565 2207.53,-571.98"/>
</g>
<!-- components/modals/ShareModal/index.tsx&#45;&gt;components/Modal/index.tsx -->
<g id="edge23" class="edge">
<title>components/modals/ShareModal/index.tsx&#45;&gt;components/Modal/index.tsx</title>
<path fill="none" stroke="#757575" d="M1953.11,-525.98C1990.07,-522.03 2031.56,-517.72 2069.5,-514.05 2113.69,-509.78 2162.48,-505.45 2204.53,-501.85"/>
<polygon fill="#757575" stroke="#757575" points="2204.84,-505.33 2214.5,-500.99 2204.24,-498.36 2204.84,-505.33"/>
</g>
<!-- components/modals/ShareModal/index.tsx&#45;&gt;components/modals/ShareModal/Store.ts -->
<g id="edge24" class="edge">
<title>components/modals/ShareModal/index.tsx&#45;&gt;components/modals/ShareModal/Store.ts</title>
<path fill="none" stroke="#757575" d="M1982.13,-537.16C2039.71,-536.79 2106.53,-536.36 2164.8,-535.98"/>
<polygon fill="#757575" stroke="#757575" points="2164.84,-539.48 2174.82,-535.92 2164.8,-532.48 2164.84,-539.48"/>
</g>
<!-- helpers/tracer.ts -->
<g id="node21" class="node">
<title>helpers/tracer.ts</title>
<path fill="none" stroke="#cfffac" d="M297.85,-167.15C297.85,-167.15 198.78,-167.15 198.78,-167.15 194.75,-167.15 190.72,-163.12 190.72,-159.08 190.72,-159.08 190.72,-151.02 190.72,-151.02 190.72,-146.98 194.75,-142.95 198.78,-142.95 198.78,-142.95 297.85,-142.95 297.85,-142.95 301.88,-142.95 305.92,-146.98 305.92,-151.02 305.92,-151.02 305.92,-159.08 305.92,-159.08 305.92,-163.12 301.88,-167.15 297.85,-167.15"/>
<text text-anchor="middle" x="248.32" y="-151.9" font-family="Arial" font-size="14.00" fill="#cfffac">helpers/tracer.ts</text>
</g>
<!-- index.tsx -->
<g id="node22" class="node">
<title>index.tsx</title>
<path fill="none" stroke="#c6c5fe" d="M104.94,-167.15C104.94,-167.15 49.58,-167.15 49.58,-167.15 45.54,-167.15 41.51,-163.12 41.51,-159.08 41.51,-159.08 41.51,-151.02 41.51,-151.02 41.51,-146.98 45.54,-142.95 49.58,-142.95 49.58,-142.95 104.94,-142.95 104.94,-142.95 108.97,-142.95 113.01,-146.98 113.01,-151.02 113.01,-151.02 113.01,-159.08 113.01,-159.08 113.01,-163.12 108.97,-167.15 104.94,-167.15"/>
<text text-anchor="middle" x="77.26" y="-151.9" font-family="Arial" font-size="14.00" fill="#c6c5fe">index.tsx</text>
</g>
<!-- index.tsx&#45;&gt;App.tsx -->
<g id="edge25" class="edge">
<title>index.tsx&#45;&gt;App.tsx</title>
<path fill="none" stroke="#757575" d="M113.29,-163.75C140.51,-170.51 178.3,-179.9 206.82,-186.99"/>
<polygon fill="#757575" stroke="#757575" points="206.32,-190.47 216.87,-189.48 208.01,-183.68 206.32,-190.47"/>
</g>
<!-- index.tsx&#45;&gt;helpers/tracer.ts -->
<g id="edge26" class="edge">
<title>index.tsx&#45;&gt;helpers/tracer.ts</title>
<path fill="none" stroke="#757575" d="M113.29,-155.05C132.75,-155.05 157.61,-155.05 180.63,-155.05"/>
<polygon fill="#757575" stroke="#757575" points="180.7,-158.55 190.7,-155.05 180.7,-151.55 180.7,-158.55"/>
</g>
<!-- react&#45;app&#45;env.d.ts -->
<g id="node23" class="node">
<title>react&#45;app&#45;env.d.ts</title>
<path fill="none" stroke="#cfffac" d="M132.99,-251.15C132.99,-251.15 21.53,-251.15 21.53,-251.15 17.5,-251.15 13.46,-247.12 13.46,-243.08 13.46,-243.08 13.46,-235.02 13.46,-235.02 13.46,-230.98 17.5,-226.95 21.53,-226.95 21.53,-226.95 132.99,-226.95 132.99,-226.95 137.02,-226.95 141.05,-230.98 141.05,-235.02 141.05,-235.02 141.05,-243.08 141.05,-243.08 141.05,-247.12 137.02,-251.15 132.99,-251.15"/>
<text text-anchor="middle" x="77.26" y="-235.9" font-family="Arial" font-size="14.00" fill="#cfffac">react&#45;app&#45;env.d.ts</text>
</g>
<!-- routes/Board/components/Header/components/TitleBar/TitleBarStore.ts -->
<g id="node25" class="node">
<title>routes/Board/components/Header/components/TitleBar/TitleBarStore.ts</title>
<path fill="none" stroke="#c6c5fe" d="M2532.02,-631.15C2532.02,-631.15 2090.69,-631.15 2090.69,-631.15 2086.66,-631.15 2082.62,-627.12 2082.62,-623.08 2082.62,-623.08 2082.62,-615.02 2082.62,-615.02 2082.62,-610.98 2086.66,-606.95 2090.69,-606.95 2090.69,-606.95 2532.02,-606.95 2532.02,-606.95 2536.05,-606.95 2540.09,-610.98 2540.09,-615.02 2540.09,-615.02 2540.09,-623.08 2540.09,-623.08 2540.09,-627.12 2536.05,-631.15 2532.02,-631.15"/>
<text text-anchor="middle" x="2311.36" y="-615.9" font-family="Arial" font-size="14.00" fill="#c6c5fe">routes/Board/components/Header/components/TitleBar/TitleBarStore.ts</text>
</g>
<!-- routes/Board/components/Header/components/TitleBar/TitleBarStore.ts&#45;&gt;stores/boardStore.ts -->
<g id="edge28" class="edge">
<title>routes/Board/components/Header/components/TitleBar/TitleBarStore.ts&#45;&gt;stores/boardStore.ts</title>
<path fill="none" stroke="#757575" d="M2523.91,-607C2533.92,-604.43 2543.73,-601.47 2553.21,-598.05 2656.83,-560.64 2757.77,-472.33 2799.15,-433.24"/>
<polygon fill="#757575" stroke="#757575" points="2801.8,-435.55 2806.61,-426.11 2796.96,-430.48 2801.8,-435.55"/>
</g>
<!-- stores/accessRulesStore.ts -->
<g id="node26" class="node">
<title>stores/accessRulesStore.ts</title>
<path fill="none" stroke="#c6c5fe" d="M2904.33,-384.15C2904.33,-384.15 2735.22,-384.15 2735.22,-384.15 2731.19,-384.15 2727.15,-380.12 2727.15,-376.08 2727.15,-376.08 2727.15,-368.02 2727.15,-368.02 2727.15,-363.98 2731.19,-359.95 2735.22,-359.95 2735.22,-359.95 2904.33,-359.95 2904.33,-359.95 2908.36,-359.95 2912.39,-363.98 2912.39,-368.02 2912.39,-368.02 2912.39,-376.08 2912.39,-376.08 2912.39,-380.12 2908.36,-384.15 2904.33,-384.15"/>
<text text-anchor="middle" x="2819.77" y="-368.9" font-family="Arial" font-size="14.00" fill="#c6c5fe">stores/accessRulesStore.ts</text>
</g>
<!-- routes/Board/components/Header/components/TitleBar/TitleBarStore.ts&#45;&gt;stores/accessRulesStore.ts -->
<g id="edge27" class="edge">
<title>routes/Board/components/Header/components/TitleBar/TitleBarStore.ts&#45;&gt;stores/accessRulesStore.ts</title>
<path fill="none" stroke="#757575" d="M2365.15,-631.14C2419.43,-640.18 2502.93,-644.14 2553.21,-598.05 2621.4,-535.54 2521.15,-455.7 2589.21,-393.05 2632.54,-353.15 2701.94,-352.19 2753.1,-358.58"/>
<polygon fill="#757575" stroke="#757575" points="2752.69,-362.06 2763.07,-359.95 2753.64,-355.12 2752.69,-362.06"/>
</g>
<!-- stores/accessRulesStore.ts&#45;&gt;services/accessRulesService.ts -->
<g id="edge65" class="edge">
<title>stores/accessRulesStore.ts&#45;&gt;services/accessRulesService.ts</title>
<path fill="none" stroke="#757575" d="M2912.86,-366.83C2962.3,-364.03 3023.71,-360.55 3076.28,-357.57"/>
<polygon fill="#757575" stroke="#757575" points="3076.54,-361.06 3086.33,-357 3076.15,-354.07 3076.54,-361.06"/>
</g>
<!-- routes/Board/components/Header/components/TitleBar/index.tsx -->
<g id="node27" class="node">
<title>routes/Board/components/Header/components/TitleBar/index.tsx</title>
<path fill="none" stroke="#c6c5fe" d="M1265.19,-449.15C1265.19,-449.15 864.28,-449.15 864.28,-449.15 860.25,-449.15 856.21,-445.12 856.21,-441.08 856.21,-441.08 856.21,-433.02 856.21,-433.02 856.21,-428.98 860.25,-424.95 864.28,-424.95 864.28,-424.95 1265.19,-424.95 1265.19,-424.95 1269.23,-424.95 1273.26,-428.98 1273.26,-433.02 1273.26,-433.02 1273.26,-441.08 1273.26,-441.08 1273.26,-445.12 1269.23,-449.15 1265.19,-449.15"/>
<text text-anchor="middle" x="1064.74" y="-433.9" font-family="Arial" font-size="14.00" fill="#c6c5fe">routes/Board/components/Header/components/TitleBar/index.tsx</text>
</g>
<!-- routes/Board/components/Header/components/TitleBar/index.tsx&#45;&gt;components/Button/index.tsx -->
<g id="edge29" class="edge">
<title>routes/Board/components/Header/components/TitleBar/index.tsx&#45;&gt;components/Button/index.tsx</title>
<path fill="none" stroke="#757575" d="M1108.58,-424.95C1204.64,-398.52 1445.01,-336.29 1650.98,-315.05 1820.1,-297.61 1864.23,-299.29 2033.5,-315.05 2109.37,-322.11 2195.44,-339.84 2251.19,-352.63"/>
<polygon fill="#757575" stroke="#757575" points="2250.7,-356.11 2261.24,-354.96 2252.28,-349.29 2250.7,-356.11"/>
</g>
<!-- routes/Board/components/Header/components/TitleBar/index.tsx&#45;&gt;components/modals/BoardTitleModal/index.tsx -->
<g id="edge30" class="edge">
<title>routes/Board/components/Header/components/TitleBar/index.tsx&#45;&gt;components/modals/BoardTitleModal/index.tsx</title>
<path fill="none" stroke="#757575" d="M1273.27,-437.05C1281.98,-437.05 1290.66,-437.05 1299.25,-437.05"/>
<polygon fill="#757575" stroke="#757575" points="1299.29,-440.55 1309.29,-437.05 1299.29,-433.55 1299.29,-440.55"/>
</g>
<!-- routes/Board/components/Header/components/TitleBar/index.tsx&#45;&gt;components/modals/ShareModal/index.tsx -->
<g id="edge31" class="edge">
<title>routes/Board/components/Header/components/TitleBar/index.tsx&#45;&gt;components/modals/ShareModal/index.tsx</title>
<path fill="none" stroke="#757575" d="M1158.51,-449.13C1304.42,-468.13 1586.5,-504.87 1738.4,-524.66"/>
<polygon fill="#757575" stroke="#757575" points="1738.3,-528.17 1748.66,-525.99 1739.2,-521.23 1738.3,-528.17"/>
</g>
<!-- routes/Board/components/Header/components/TitleBar/index.tsx&#45;&gt;routes/Board/components/Header/components/TitleBar/TitleBarStore.ts -->
<g id="edge32" class="edge">
<title>routes/Board/components/Header/components/TitleBar/index.tsx&#45;&gt;routes/Board/components/Header/components/TitleBar/TitleBarStore.ts</title>
<path fill="none" stroke="#757575" d="M1110.09,-449.21C1158.84,-462.5 1239.5,-484.27 1309.25,-502.05 1460.7,-540.65 1496.32,-562.48 1650.98,-585.05 1789.72,-605.29 1946.4,-613.95 2072.21,-617.48"/>
<polygon fill="#757575" stroke="#757575" points="2072.27,-620.98 2082.36,-617.75 2072.46,-613.98 2072.27,-620.98"/>
</g>
<!-- routes/Board/components/Header/index.tsx&#45;&gt;routes/Board/components/Header/components/TitleBar/index.tsx -->
<g id="edge33" class="edge">
<title>routes/Board/components/Header/index.tsx&#45;&gt;routes/Board/components/Header/components/TitleBar/index.tsx</title>
<path fill="none" stroke="#757575" d="M774.75,-349.12C790.05,-351.66 805.63,-354.63 820.22,-358.05 892.9,-375.07 975.01,-403.75 1022.91,-421.48"/>
<polygon fill="#757575" stroke="#757575" points="1021.71,-424.77 1032.31,-424.98 1024.16,-418.21 1021.71,-424.77"/>
</g>
<!-- routes/Dashboard/Dashboard.mobile/Store.ts -->
<g id="node29" class="node">
<title>routes/Dashboard/Dashboard.mobile/Store.ts</title>
<path fill="none" stroke="#c6c5fe" d="M2451.72,-145.15C2451.72,-145.15 2170.99,-145.15 2170.99,-145.15 2166.96,-145.15 2162.93,-141.12 2162.93,-137.08 2162.93,-137.08 2162.93,-129.02 2162.93,-129.02 2162.93,-124.98 2166.96,-120.95 2170.99,-120.95 2170.99,-120.95 2451.72,-120.95 2451.72,-120.95 2455.75,-120.95 2459.79,-124.98 2459.79,-129.02 2459.79,-129.02 2459.79,-137.08 2459.79,-137.08 2459.79,-141.12 2455.75,-145.15 2451.72,-145.15"/>
<text text-anchor="middle" x="2311.36" y="-129.9" font-family="Arial" font-size="14.00" fill="#c6c5fe">routes/Dashboard/Dashboard.mobile/Store.ts</text>
</g>
<!-- stores/dashboardStore.ts -->
<g id="node30" class="node">
<title>stores/dashboardStore.ts</title>
<path fill="none" stroke="#c6c5fe" d="M2898.13,-187.15C2898.13,-187.15 2741.42,-187.15 2741.42,-187.15 2737.39,-187.15 2733.35,-183.12 2733.35,-179.08 2733.35,-179.08 2733.35,-171.02 2733.35,-171.02 2733.35,-166.98 2737.39,-162.95 2741.42,-162.95 2741.42,-162.95 2898.13,-162.95 2898.13,-162.95 2902.16,-162.95 2906.19,-166.98 2906.19,-171.02 2906.19,-171.02 2906.19,-179.08 2906.19,-179.08 2906.19,-183.12 2902.16,-187.15 2898.13,-187.15"/>
<text text-anchor="middle" x="2819.77" y="-171.9" font-family="Arial" font-size="14.00" fill="#c6c5fe">stores/dashboardStore.ts</text>
</g>
<!-- routes/Dashboard/Dashboard.mobile/Store.ts&#45;&gt;stores/dashboardStore.ts -->
<g id="edge36" class="edge">
<title>routes/Dashboard/Dashboard.mobile/Store.ts&#45;&gt;stores/dashboardStore.ts</title>
<path fill="none" stroke="#757575" d="M2457.81,-145.11C2543.08,-152.18 2648.39,-160.92 2723.21,-167.12"/>
<polygon fill="#757575" stroke="#757575" points="2723.3,-170.64 2733.56,-167.98 2723.88,-163.67 2723.3,-170.64"/>
</g>
<!-- types/BoardTypes.ts -->
<g id="node31" class="node">
<title>types/BoardTypes.ts</title>
<path fill="none" stroke="#cfffac" d="M3477.64,-244.15C3477.64,-244.15 3351.09,-244.15 3351.09,-244.15 3347.06,-244.15 3343.03,-240.12 3343.03,-236.08 3343.03,-236.08 3343.03,-228.02 3343.03,-228.02 3343.03,-223.98 3347.06,-219.95 3351.09,-219.95 3351.09,-219.95 3477.64,-219.95 3477.64,-219.95 3481.68,-219.95 3485.71,-223.98 3485.71,-228.02 3485.71,-228.02 3485.71,-236.08 3485.71,-236.08 3485.71,-240.12 3481.68,-244.15 3477.64,-244.15"/>
<text text-anchor="middle" x="3414.37" y="-228.9" font-family="Arial" font-size="14.00" fill="#cfffac">types/BoardTypes.ts</text>
</g>
<!-- routes/Dashboard/Dashboard.mobile/Store.ts&#45;&gt;types/BoardTypes.ts -->
<g id="edge37" class="edge">
<title>routes/Dashboard/Dashboard.mobile/Store.ts&#45;&gt;types/BoardTypes.ts</title>
<path fill="none" stroke="#757575" d="M2459.88,-128.82C2695.51,-123.57 3145.79,-120.17 3298.4,-165.05 3332.84,-175.18 3367.82,-197.69 3390.01,-213.83"/>
<polygon fill="#757575" stroke="#757575" points="3388.02,-216.71 3398.13,-219.87 3392.2,-211.09 3388.02,-216.71"/>
</g>
<!-- stores/dashboardStore.ts&#45;&gt;types/BoardTypes.ts -->
<g id="edge69" class="edge">
<title>stores/dashboardStore.ts&#45;&gt;types/BoardTypes.ts</title>
<path fill="none" stroke="#757575" d="M2906.2,-170.05C3002.44,-166.22 3163.1,-165.31 3298.4,-191.05 3325.6,-196.22 3354.99,-206.8 3377.24,-215.91"/>
<polygon fill="#757575" stroke="#757575" points="3376.04,-219.2 3386.62,-219.84 3378.75,-212.75 3376.04,-219.2"/>
</g>
<!-- services/dashboardService.ts -->
<g id="node46" class="node">
<title>services/dashboardService.ts</title>
<path fill="none" stroke="#c6c5fe" d="M3283.67,-224.15C3283.67,-224.15 3101.08,-224.15 3101.08,-224.15 3097.04,-224.15 3093.01,-220.12 3093.01,-216.08 3093.01,-216.08 3093.01,-208.02 3093.01,-208.02 3093.01,-203.98 3097.04,-199.95 3101.08,-199.95 3101.08,-199.95 3283.67,-199.95 3283.67,-199.95 3287.7,-199.95 3291.73,-203.98 3291.73,-208.02 3291.73,-208.02 3291.73,-216.08 3291.73,-216.08 3291.73,-220.12 3287.7,-224.15 3283.67,-224.15"/>
<text text-anchor="middle" x="3192.37" y="-208.9" font-family="Arial" font-size="14.00" fill="#c6c5fe">services/dashboardService.ts</text>
</g>
<!-- stores/dashboardStore.ts&#45;&gt;services/dashboardService.ts -->
<g id="edge68" class="edge">
<title>stores/dashboardStore.ts&#45;&gt;services/dashboardService.ts</title>
<path fill="none" stroke="#757575" d="M2906.26,-183.58C2958.79,-188.83 3026.58,-195.6 3082.87,-201.22"/>
<polygon fill="#757575" stroke="#757575" points="3082.59,-204.71 3092.88,-202.22 3083.28,-197.74 3082.59,-204.71"/>
</g>
<!-- routes/Dashboard/Dashboard.mobile/components/DashboardItem/index.tsx -->
<g id="node32" class="node">
<title>routes/Dashboard/Dashboard.mobile/components/DashboardItem/index.tsx</title>
<path fill="none" stroke="#cfffac" d="M2544.99,-61.15C2544.99,-61.15 2077.72,-61.15 2077.72,-61.15 2073.69,-61.15 2069.65,-57.12 2069.65,-53.08 2069.65,-53.08 2069.65,-45.02 2069.65,-45.02 2069.65,-40.98 2073.69,-36.95 2077.72,-36.95 2077.72,-36.95 2544.99,-36.95 2544.99,-36.95 2549.02,-36.95 2553.06,-40.98 2553.06,-45.02 2553.06,-45.02 2553.06,-53.08 2553.06,-53.08 2553.06,-57.12 2549.02,-61.15 2544.99,-61.15"/>
<text text-anchor="middle" x="2311.36" y="-45.9" font-family="Arial" font-size="14.00" fill="#cfffac">routes/Dashboard/Dashboard.mobile/components/DashboardItem/index.tsx</text>
</g>
<!-- routes/Dashboard/Dashboard.mobile/index.tsx&#45;&gt;routes/Dashboard/Dashboard.mobile/Store.ts -->
<g id="edge38" class="edge">
<title>routes/Dashboard/Dashboard.mobile/index.tsx&#45;&gt;routes/Dashboard/Dashboard.mobile/Store.ts</title>
<path fill="none" stroke="#757575" d="M1994.52,-60.95C2008.06,-64.46 2021.26,-69.07 2033.5,-75.05 2054.12,-85.12 2048.78,-102.21 2069.5,-112.05 2095.12,-124.2 2123.98,-131.4 2152.59,-135.42"/>
<polygon fill="#757575" stroke="#757575" points="2152.33,-138.92 2162.69,-136.71 2153.22,-131.97 2152.33,-138.92"/>
</g>
<!-- routes/Dashboard/Dashboard.mobile/index.tsx&#45;&gt;routes/Dashboard/Dashboard.mobile/components/DashboardItem/index.tsx -->
<g id="edge39" class="edge">
<title>routes/Dashboard/Dashboard.mobile/index.tsx&#45;&gt;routes/Dashboard/Dashboard.mobile/components/DashboardItem/index.tsx</title>
<path fill="none" stroke="#757575" d="M1994.26,-52.43C2015.18,-52.21 2037.11,-51.97 2059.25,-51.74"/>
<polygon fill="#757575" stroke="#757575" points="2059.48,-55.24 2069.44,-51.63 2059.4,-48.24 2059.48,-55.24"/>
</g>
<!-- routes/Dashboard/Dashboard.web/Store.ts -->
<g id="node34" class="node">
<title>routes/Dashboard/Dashboard.web/Store.ts</title>
<path fill="none" stroke="#c6c5fe" d="M2444.16,-187.15C2444.16,-187.15 2178.55,-187.15 2178.55,-187.15 2174.52,-187.15 2170.48,-183.12 2170.48,-179.08 2170.48,-179.08 2170.48,-171.02 2170.48,-171.02 2170.48,-166.98 2174.52,-162.95 2178.55,-162.95 2178.55,-162.95 2444.16,-162.95 2444.16,-162.95 2448.19,-162.95 2452.23,-166.98 2452.23,-171.02 2452.23,-171.02 2452.23,-179.08 2452.23,-179.08 2452.23,-183.12 2448.19,-187.15 2444.16,-187.15"/>
<text text-anchor="middle" x="2311.36" y="-171.9" font-family="Arial" font-size="14.00" fill="#c6c5fe">routes/Dashboard/Dashboard.web/Store.ts</text>
</g>
<!-- routes/Dashboard/Dashboard.web/Store.ts&#45;&gt;stores/dashboardStore.ts -->
<g id="edge40" class="edge">
<title>routes/Dashboard/Dashboard.web/Store.ts&#45;&gt;stores/dashboardStore.ts</title>
<path fill="none" stroke="#757575" d="M2452.08,-175.05C2538.37,-175.05 2646.85,-175.05 2723.36,-175.05"/>
<polygon fill="#757575" stroke="#757575" points="2723.47,-178.55 2733.47,-175.05 2723.47,-171.55 2723.47,-178.55"/>
</g>
<!-- routes/Dashboard/Dashboard.web/Store.ts&#45;&gt;types/BoardTypes.ts -->
<g id="edge41" class="edge">
<title>routes/Dashboard/Dashboard.web/Store.ts&#45;&gt;types/BoardTypes.ts</title>
<path fill="none" stroke="#757575" d="M2452.13,-185.69C2496.01,-189.02 2544.62,-192.7 2589.21,-196.05 2810.14,-212.65 2864.93,-224.82 3086.34,-233.05 3180.53,-236.55 3204.15,-233.46 3298.4,-233.05 3309.52,-233 3321.24,-232.93 3332.77,-232.84"/>
<polygon fill="#757575" stroke="#757575" points="3332.87,-236.34 3342.84,-232.76 3332.81,-229.34 3332.87,-236.34"/>
</g>
<!-- routes/Dashboard/Dashboard.web/components/DashboardItem/Store.ts -->
<g id="node35" class="node">
<title>routes/Dashboard/Dashboard.web/components/DashboardItem/Store.ts</title>
<path fill="none" stroke="#c6c5fe" d="M3042.34,-103.15C3042.34,-103.15 2597.2,-103.15 2597.2,-103.15 2593.17,-103.15 2589.14,-99.12 2589.14,-95.08 2589.14,-95.08 2589.14,-87.02 2589.14,-87.02 2589.14,-82.98 2593.17,-78.95 2597.2,-78.95 2597.2,-78.95 3042.34,-78.95 3042.34,-78.95 3046.38,-78.95 3050.41,-82.98 3050.41,-87.02 3050.41,-87.02 3050.41,-95.08 3050.41,-95.08 3050.41,-99.12 3046.38,-103.15 3042.34,-103.15"/>
<text text-anchor="middle" x="2819.77" y="-87.9" font-family="Arial" font-size="14.00" fill="#c6c5fe">routes/Dashboard/Dashboard.web/components/DashboardItem/Store.ts</text>
</g>
<!-- routes/Dashboard/Dashboard.web/components/DashboardItem/Store.ts&#45;&gt;types/CommonTypes.ts -->
<g id="edge45" class="edge">
<title>routes/Dashboard/Dashboard.web/components/DashboardItem/Store.ts&#45;&gt;types/CommonTypes.ts</title>
<path fill="none" stroke="#757575" d="M2928.21,-78.99C2967.23,-73 3011.3,-64.33 3050.34,-52.05 3067.22,-46.74 3069.54,-40.6 3086.34,-35.05 3093.67,-32.63 3101.37,-30.44 3109.15,-28.47"/>
<polygon fill="#757575" stroke="#757575" points="3110.11,-31.84 3119.01,-26.1 3108.47,-25.04 3110.11,-31.84"/>
</g>
<!-- routes/Dashboard/Dashboard.web/components/DashboardItem/Store.ts&#45;&gt;types/BoardTypes.ts -->
<g id="edge44" class="edge">
<title>routes/Dashboard/Dashboard.web/components/DashboardItem/Store.ts&#45;&gt;types/BoardTypes.ts</title>
<path fill="none" stroke="#757575" d="M3050.35,-90.01C3149.93,-92.61 3253.86,-100.35 3298.4,-120.05 3343.05,-139.8 3380.43,-184.97 3399.58,-211.52"/>
<polygon fill="#757575" stroke="#757575" points="3396.75,-213.58 3405.36,-219.75 3402.48,-209.55 3396.75,-213.58"/>
</g>
<!-- routes/Dashboard/Dashboard.web/components/DashboardItem/Store.ts&#45;&gt;services/accessRulesService.ts -->
<g id="edge42" class="edge">
<title>routes/Dashboard/Dashboard.web/components/DashboardItem/Store.ts&#45;&gt;services/accessRulesService.ts</title>
<path fill="none" stroke="#757575" d="M2938.75,-103.13C2977.8,-112.09 3019.19,-127.52 3050.34,-154.05 3079.72,-179.07 3065.28,-200.72 3086.34,-233.05 3111.25,-271.28 3148.15,-309.66 3170.93,-331.85"/>
<polygon fill="#757575" stroke="#757575" points="3168.72,-334.58 3178.35,-338.99 3173.58,-329.54 3168.72,-334.58"/>
</g>
<!-- stores/userStore.ts -->
<g id="node37" class="node">
<title>stores/userStore.ts</title>
<path fill="none" stroke="#c6c5fe" d="M3251.3,-68.15C3251.3,-68.15 3133.45,-68.15 3133.45,-68.15 3129.42,-68.15 3125.38,-64.12 3125.38,-60.08 3125.38,-60.08 3125.38,-52.02 3125.38,-52.02 3125.38,-47.98 3129.42,-43.95 3133.45,-43.95 3133.45,-43.95 3251.3,-43.95 3251.3,-43.95 3255.33,-43.95 3259.36,-47.98 3259.36,-52.02 3259.36,-52.02 3259.36,-60.08 3259.36,-60.08 3259.36,-64.12 3255.33,-68.15 3251.3,-68.15"/>
<text text-anchor="middle" x="3192.37" y="-52.9" font-family="Arial" font-size="14.00" fill="#c6c5fe">stores/userStore.ts</text>
</g>
<!-- routes/Dashboard/Dashboard.web/components/DashboardItem/Store.ts&#45;&gt;stores/userStore.ts -->
<g id="edge43" class="edge">
<title>routes/Dashboard/Dashboard.web/components/DashboardItem/Store.ts&#45;&gt;stores/userStore.ts</title>
<path fill="none" stroke="#757575" d="M2948.57,-78.98C3004.16,-73.73 3067.42,-67.76 3115.43,-63.22"/>
<polygon fill="#757575" stroke="#757575" points="3115.8,-66.7 3125.43,-62.28 3115.15,-59.73 3115.8,-66.7"/>
</g>
<!-- services/accessRulesService.ts&#45;&gt;types/BoardTypes.ts -->
<g id="edge61" class="edge">
<title>services/accessRulesService.ts&#45;&gt;types/BoardTypes.ts</title>
<path fill="none" stroke="#757575" d="M3223.33,-338.95C3244.63,-330.04 3273.73,-317.22 3298.4,-304.05 3329.77,-287.31 3364.12,-265.28 3387.03,-250.01"/>
<polygon fill="#757575" stroke="#757575" points="3389.16,-252.8 3395.51,-244.32 3385.26,-246.99 3389.16,-252.8"/>
</g>
<!-- services/userService.ts -->
<g id="node47" class="node">
<title>services/userService.ts</title>
<path fill="none" stroke="#c6c5fe" d="M3486.23,-68.15C3486.23,-68.15 3342.5,-68.15 3342.5,-68.15 3338.47,-68.15 3334.44,-64.12 3334.44,-60.08 3334.44,-60.08 3334.44,-52.02 3334.44,-52.02 3334.44,-47.98 3338.47,-43.95 3342.5,-43.95 3342.5,-43.95 3486.23,-43.95 3486.23,-43.95 3490.27,-43.95 3494.3,-47.98 3494.3,-52.02 3494.3,-52.02 3494.3,-60.08 3494.3,-60.08 3494.3,-64.12 3490.27,-68.15 3486.23,-68.15"/>
<text text-anchor="middle" x="3414.37" y="-52.9" font-family="Arial" font-size="14.00" fill="#c6c5fe">services/userService.ts</text>
</g>
<!-- stores/userStore.ts&#45;&gt;services/userService.ts -->
<g id="edge70" class="edge">
<title>stores/userStore.ts&#45;&gt;services/userService.ts</title>
<path fill="none" stroke="#757575" d="M3259.38,-56.05C3279.7,-56.05 3302.42,-56.05 3324.04,-56.05"/>
<polygon fill="#757575" stroke="#757575" points="3324.21,-59.55 3334.21,-56.05 3324.21,-52.55 3324.21,-59.55"/>
</g>
<!-- routes/Dashboard/Dashboard.web/components/DashboardItem/index.tsx -->
<g id="node38" class="node">
<title>routes/Dashboard/Dashboard.web/components/DashboardItem/index.tsx</title>
<path fill="none" stroke="#c6c5fe" d="M2537.43,-103.15C2537.43,-103.15 2085.28,-103.15 2085.28,-103.15 2081.25,-103.15 2077.21,-99.12 2077.21,-95.08 2077.21,-95.08 2077.21,-87.02 2077.21,-87.02 2077.21,-82.98 2081.25,-78.95 2085.28,-78.95 2085.28,-78.95 2537.43,-78.95 2537.43,-78.95 2541.47,-78.95 2545.5,-82.98 2545.5,-87.02 2545.5,-87.02 2545.5,-95.08 2545.5,-95.08 2545.5,-99.12 2541.47,-103.15 2537.43,-103.15"/>
<text text-anchor="middle" x="2311.36" y="-87.9" font-family="Arial" font-size="14.00" fill="#c6c5fe">routes/Dashboard/Dashboard.web/components/DashboardItem/index.tsx</text>
</g>
<!-- routes/Dashboard/Dashboard.web/components/DashboardItem/index.tsx&#45;&gt;components/Actions/index.tsx -->
<g id="edge46" class="edge">
<title>routes/Dashboard/Dashboard.web/components/DashboardItem/index.tsx&#45;&gt;components/Actions/index.tsx</title>
<path fill="none" stroke="#757575" d="M2466.35,-78.98C2495.24,-76.33 2525.17,-73.33 2553.21,-70.05 2614.06,-62.93 2682.46,-52.84 2734.6,-44.7"/>
<polygon fill="#757575" stroke="#757575" points="2735.47,-48.11 2744.81,-43.1 2734.39,-41.19 2735.47,-48.11"/>
</g>
<!-- routes/Dashboard/Dashboard.web/components/DashboardItem/index.tsx&#45;&gt;routes/Dashboard/Dashboard.web/components/DashboardItem/Store.ts -->
<g id="edge47" class="edge">
<title>routes/Dashboard/Dashboard.web/components/DashboardItem/index.tsx&#45;&gt;routes/Dashboard/Dashboard.web/components/DashboardItem/Store.ts</title>
<path fill="none" stroke="#757575" d="M2545.55,-91.05C2556.58,-91.05 2567.67,-91.05 2578.71,-91.05"/>
<polygon fill="#757575" stroke="#757575" points="2578.85,-94.55 2588.85,-91.05 2578.85,-87.55 2578.85,-94.55"/>
</g>
<!-- routes/Dashboard/Dashboard.web/index.tsx&#45;&gt;routes/Dashboard/Dashboard.web/Store.ts -->
<g id="edge48" class="edge">
<title>routes/Dashboard/Dashboard.web/index.tsx&#45;&gt;routes/Dashboard/Dashboard.web/Store.ts</title>
<path fill="none" stroke="#757575" d="M1986.65,-106.28C2002.86,-110.16 2018.82,-115.29 2033.5,-122.05 2052.95,-131 2049.84,-145.58 2069.5,-154.05 2097.68,-166.19 2129.4,-173.11 2160.34,-176.8"/>
<polygon fill="#757575" stroke="#757575" points="2160.04,-180.28 2170.36,-177.88 2160.79,-173.33 2160.04,-180.28"/>
</g>
<!-- routes/Dashboard/Dashboard.web/index.tsx&#45;&gt;routes/Dashboard/Dashboard.web/components/DashboardItem/index.tsx -->
<g id="edge49" class="edge">
<title>routes/Dashboard/Dashboard.web/index.tsx&#45;&gt;routes/Dashboard/Dashboard.web/components/DashboardItem/index.tsx</title>
<path fill="none" stroke="#757575" d="M1986.57,-94.52C2012.12,-94.24 2039.38,-93.95 2066.83,-93.66"/>
<polygon fill="#757575" stroke="#757575" points="2066.98,-97.15 2076.95,-93.55 2066.91,-90.16 2066.98,-97.15"/>
</g>
<!-- routes/testSpace/components/DeepDataTest/Store.ts -->
<g id="node42" class="node">
<title>routes/testSpace/components/DeepDataTest/Store.ts</title>
<path fill="none" stroke="#cfffac" d="M2476.25,-271.15C2476.25,-271.15 2146.46,-271.15 2146.46,-271.15 2142.43,-271.15 2138.4,-267.12 2138.4,-263.08 2138.4,-263.08 2138.4,-255.02 2138.4,-255.02 2138.4,-250.98 2142.43,-246.95 2146.46,-246.95 2146.46,-246.95 2476.25,-246.95 2476.25,-246.95 2480.28,-246.95 2484.31,-250.98 2484.31,-255.02 2484.31,-255.02 2484.31,-263.08 2484.31,-263.08 2484.31,-267.12 2480.28,-271.15 2476.25,-271.15"/>
<text text-anchor="middle" x="2311.36" y="-255.9" font-family="Arial" font-size="14.00" fill="#cfffac">routes/testSpace/components/DeepDataTest/Store.ts</text>
</g>
<!-- routes/testSpace/components/DeepDataTest/index.tsx&#45;&gt;components/Button/index.tsx -->
<g id="edge53" class="edge">
<title>routes/testSpace/components/DeepDataTest/index.tsx&#45;&gt;components/Button/index.tsx</title>
<path fill="none" stroke="#757575" d="M1996.99,-230.11C2009.66,-233.77 2022.01,-238.34 2033.5,-244.05 2053.77,-254.11 2050.41,-267.91 2069.5,-280.05 2124.91,-315.25 2196.53,-338.79 2247.22,-352.41"/>
<polygon fill="#757575" stroke="#757575" points="2246.51,-355.84 2257.07,-355 2248.29,-349.07 2246.51,-355.84"/>
</g>
<!-- routes/testSpace/components/DeepDataTest/index.tsx&#45;&gt;routes/testSpace/components/DeepDataTest/Store.ts -->
<g id="edge54" class="edge">
<title>routes/testSpace/components/DeepDataTest/index.tsx&#45;&gt;routes/testSpace/components/DeepDataTest/Store.ts</title>
<path fill="none" stroke="#757575" d="M1979.34,-230.11C2009.05,-232.73 2040.34,-235.49 2069.5,-238.05 2099.18,-240.65 2130.92,-243.43 2161.29,-246.08"/>
<polygon fill="#757575" stroke="#757575" points="2161.26,-249.59 2171.53,-246.97 2161.87,-242.62 2161.26,-249.59"/>
</g>
<!-- routes/testSpace/perfStore.ts&#45;&gt;stores/dashboardStore.ts -->
<g id="edge59" class="edge">
<title>routes/testSpace/perfStore.ts&#45;&gt;stores/dashboardStore.ts</title>
<path fill="none" stroke="#757575" d="M2410.3,-208.93C2500.55,-201.44 2633.68,-190.4 2723.18,-182.98"/>
<polygon fill="#757575" stroke="#757575" points="2723.65,-186.45 2733.33,-182.14 2723.07,-179.47 2723.65,-186.45"/>
</g>
<!-- routes/testSpace/perfStore.ts&#45;&gt;types/BoardTypes.ts -->
<g id="edge60" class="edge">
<title>routes/testSpace/perfStore.ts&#45;&gt;types/BoardTypes.ts</title>
<path fill="none" stroke="#757575" d="M2410.17,-213.09C2455.11,-214.39 2508.27,-220.41 2553.21,-238.05 2572.07,-245.45 2570.03,-259.47 2589.21,-266.05 2738.28,-317.2 3142.43,-288.63 3298.4,-266.05 3323.23,-262.45 3350.17,-254.71 3371.72,-247.51"/>
<polygon fill="#757575" stroke="#757575" points="3372.89,-250.81 3381.22,-244.27 3370.63,-244.19 3372.89,-250.81"/>
</g>
<!-- services/boardService.ts&#45;&gt;types/BoardTypes.ts -->
<g id="edge62" class="edge">
<title>services/boardService.ts&#45;&gt;types/BoardTypes.ts</title>
<path fill="none" stroke="#757575" d="M3256.61,-390.98C3271.09,-386.47 3285.88,-380.34 3298.4,-372.05 3345.72,-340.7 3383.46,-283.98 3401.61,-253.23"/>
<polygon fill="#757575" stroke="#757575" points="3404.84,-254.64 3406.8,-244.23 3398.77,-251.14 3404.84,-254.64"/>
</g>
<!-- services/dashboardService.ts&#45;&gt;types/BoardTypes.ts -->
<g id="edge63" class="edge">
<title>services/dashboardService.ts&#45;&gt;types/BoardTypes.ts</title>
<path fill="none" stroke="#757575" d="M3291.79,-221C3305.46,-222.24 3319.38,-223.5 3332.68,-224.71"/>
<polygon fill="#757575" stroke="#757575" points="3332.44,-228.21 3342.72,-225.63 3333.07,-221.24 3332.44,-228.21"/>
</g>
<!-- types/UserTypes.ts -->
<g id="node48" class="node">
<title>types/UserTypes.ts</title>
<path fill="none" stroke="#cfffac" d="M3657.33,-68.15C3657.33,-68.15 3538.38,-68.15 3538.38,-68.15 3534.35,-68.15 3530.31,-64.12 3530.31,-60.08 3530.31,-60.08 3530.31,-52.02 3530.31,-52.02 3530.31,-47.98 3534.35,-43.95 3538.38,-43.95 3538.38,-43.95 3657.33,-43.95 3657.33,-43.95 3661.36,-43.95 3665.4,-47.98 3665.4,-52.02 3665.4,-52.02 3665.4,-60.08 3665.4,-60.08 3665.4,-64.12 3661.36,-68.15 3657.33,-68.15"/>
<text text-anchor="middle" x="3597.85" y="-52.9" font-family="Arial" font-size="14.00" fill="#cfffac">types/UserTypes.ts</text>
</g>
<!-- services/userService.ts&#45;&gt;types/UserTypes.ts -->
<g id="edge64" class="edge">
<title>services/userService.ts&#45;&gt;types/UserTypes.ts</title>
<path fill="none" stroke="#757575" d="M3494.44,-56.05C3502.93,-56.05 3511.56,-56.05 3520.02,-56.05"/>
<polygon fill="#757575" stroke="#757575" points="3520.24,-59.55 3530.24,-56.05 3520.24,-52.55 3520.24,-59.55"/>
</g>
<!-- setupTests.ts -->
<g id="node49" class="node">
<title>setupTests.ts</title>
<path fill="none" stroke="#cfffac" d="M117.9,-293.15C117.9,-293.15 36.62,-293.15 36.62,-293.15 32.59,-293.15 28.55,-289.12 28.55,-285.08 28.55,-285.08 28.55,-277.02 28.55,-277.02 28.55,-272.98 32.59,-268.95 36.62,-268.95 36.62,-268.95 117.9,-268.95 117.9,-268.95 121.93,-268.95 125.96,-272.98 125.96,-277.02 125.96,-277.02 125.96,-285.08 125.96,-285.08 125.96,-289.12 121.93,-293.15 117.9,-293.15"/>
<text text-anchor="middle" x="77.26" y="-277.9" font-family="Arial" font-size="14.00" fill="#cfffac">setupTests.ts</text>
</g>
<!-- types/BoardTypes.d.ts -->
<g id="node50" class="node">
<title>types/BoardTypes.d.ts</title>
<path fill="none" stroke="#cfffac" d="M146.21,-335.15C146.21,-335.15 8.31,-335.15 8.31,-335.15 4.27,-335.15 0.24,-331.12 0.24,-327.08 0.24,-327.08 0.24,-319.02 0.24,-319.02 0.24,-314.98 4.27,-310.95 8.31,-310.95 8.31,-310.95 146.21,-310.95 146.21,-310.95 150.24,-310.95 154.28,-314.98 154.28,-319.02 154.28,-319.02 154.28,-327.08 154.28,-327.08 154.28,-331.12 150.24,-335.15 146.21,-335.15"/>
<text text-anchor="middle" x="77.26" y="-319.9" font-family="Arial" font-size="14.00" fill="#cfffac">types/BoardTypes.d.ts</text>
</g>
<!-- types/declaration.d.ts -->
<g id="node51" class="node">
<title>types/declaration.d.ts</title>
<path fill="none" stroke="#cfffac" d="M143.49,-377.15C143.49,-377.15 11.03,-377.15 11.03,-377.15 7,-377.15 2.96,-373.12 2.96,-369.08 2.96,-369.08 2.96,-361.02 2.96,-361.02 2.96,-356.98 7,-352.95 11.03,-352.95 11.03,-352.95 143.49,-352.95 143.49,-352.95 147.52,-352.95 151.55,-356.98 151.55,-361.02 151.55,-361.02 151.55,-369.08 151.55,-369.08 151.55,-373.12 147.52,-377.15 143.49,-377.15"/>
<text text-anchor="middle" x="77.26" y="-361.9" font-family="Arial" font-size="14.00" fill="#cfffac">types/declaration.d.ts</text>
</g>
</g>
</svg>
